<svg xmlns="http://www.w3.org/2000/svg" viewBox="0 0 320 80" fill="none">
  <g fill="#4d5666">
    
    <path d="M44 12c-2 4-6 6-10 7 3 2 6 5 7 9-3-1-6-1-9 0 2 3 4 7 4 11l-8-3c1 4 1 8 0 12l-7-5c-1 4-3 8-6 11l14 4c4 1 9 1 13 0l14-4c-3-3-5-7-6-11l-7 5c-1-4-1-8 0-12l-8 3c0-4 2-8 4-11-3-1-6-1-9 0 1-4 4-7 7-9-4-1-8-3-10-7l11 5z" transform="translate(0, 8)"></path>
  </g>
  <text x="80" y="38" font-family="Open Sans, Arial, sans-serif" font-size="22" font-weight="700" fill="#20262f" letter-spacing="-0.5">EAGLE</text>
  <text x="80" y="60" font-family="Open Sans, Arial, sans-serif" font-size="11" font-weight="600" fill="#6b7585" letter-spacing="3">NETWORK SOLUTIONS</text>
</svg>