<svg xmlns="http://www.w3.org/2000/svg" viewBox="0 0 64 64">
  <defs>
    <linearGradient id="g" x1="0" y1="0" x2="1" y2="1">
      <stop offset="0%" stop-color="#1c3c70"></stop>
      <stop offset="100%" stop-color="#0b1c3a"></stop>
    </linearGradient>
  </defs>
  <circle cx="32" cy="32" r="30" fill="url(#g)"></circle>
  <g fill="#fff" transform="translate(32 32)">
    <path d="M-14-2c2-5 8-7 13-6 2-3 6-5 10-4-2 3-3 7-3 10 4 2 6 5 6 9-4-1-8 0-11 3-2 4-6 6-10 6-3 0-7-1-9-3 4-1 7-3 9-7-3 0-6-2-7-5 3 0 6-1 8-3-3-1-5-3-6 0z" transform="scale(0.85) translate(0 4)"></path>
  </g>
</svg>